<svg width="16" height="15" viewBox="0 0 16 15" fill="none" xmlns="http://www.w3.org/2000/svg">
<path fill-rule="evenodd" clip-rule="evenodd" d="M13.5 7.21301L12.5 7C11.4391 7 10.4218 6.57858 9.67163 5.82843C8.92148 5.07828 8.5 4.06087 8.5 3L8.29004 2L8.09998 0H7.90002L7.70996 2L7.5 3C7.5 4.06087 7.07851 5.07828 6.32837 5.82843C5.57822 6.57858 4.56087 7 3.5 7L2.5 7.21301L0.5 7.39502V4C0.5 2.93913 0.921485 1.92172 1.67163 1.17157C2.42178 0.421424 3.43913 0 4.5 0H11.5C12.5609 0 13.5782 0.421424 14.3284 1.17157C15.0785 1.92172 15.5 2.93913 15.5 4V7.40002L13.5 7.21301ZM2.5 7.78699L3.5 8C4.56087 8 5.57822 8.42142 6.32837 9.17157C7.07851 9.92172 7.5 10.9391 7.5 12L7.70996 13L7.90002 15H8.09998L8.29004 13L8.5 12C8.5 10.9391 8.92148 9.92172 9.67163 9.17157C10.4218 8.42142 11.4391 8 12.5 8L13.5 7.78699L15.5 7.60498V11C15.5 12.0609 15.0785 13.0783 14.3284 13.8284C13.5782 14.5786 12.5609 15 11.5 15H4.5C3.43913 15 2.42178 14.5786 1.67163 13.8284C0.921485 13.0783 0.5 12.0609 0.5 11V7.60498L2.5 7.78699Z" fill="#888888"/>
</svg>
