<svg width="16" height="15" viewBox="0 0 16 15" fill="none" xmlns="http://www.w3.org/2000/svg">
<path fill-rule="evenodd" clip-rule="evenodd" d="M4.5 0H11.5C12.5609 0 13.5783 0.421424 14.3284 1.17157C15.0786 1.92172 15.5 2.93913 15.5 4V11C15.5 12.0609 15.0786 13.0783 14.3284 13.8284C13.5783 14.5786 12.5609 15 11.5 15H4.5C3.43913 15 2.42172 14.5786 1.67157 13.8284C0.921424 13.0783 0.5 12.0609 0.5 11V4C0.5 2.93913 0.921424 1.92172 1.67157 1.17157C2.42172 0.421424 3.43913 0 4.5 0ZM4.5 2H11.5C12.0304 2 12.5391 2.21074 12.9142 2.58582C13.2893 2.96089 13.5 3.46957 13.5 4V11C13.5 11.5304 13.2893 12.0391 12.9142 12.4142C12.5391 12.7893 12.0304 13 11.5 13H4.5C3.96957 13 3.46089 12.7893 3.08582 12.4142C2.71074 12.0391 2.5 11.5304 2.5 11V4C2.5 3.46957 2.71074 2.96089 3.08582 2.58582C3.46089 2.21074 3.96957 2 4.5 2ZM8 4C8.69223 4 9.36895 4.20526 9.94452 4.58984C10.5201 4.97443 10.9687 5.52104 11.2336 6.16058C11.4985 6.80013 11.5678 7.50387 11.4327 8.1828C11.2977 8.86173 10.9643 9.48537 10.4748 9.97485C9.98537 10.4643 9.36173 10.7977 8.6828 10.9327C8.00387 11.0678 7.30013 10.9985 6.66058 10.7336C6.02104 10.4687 5.47443 10.0201 5.08984 9.44452C4.70526 8.86895 4.5 8.19223 4.5 7.5C4.5 6.57174 4.86877 5.68152 5.52515 5.02515C6.18152 4.36877 7.07174 4 8 4ZM8 6C8.29667 6 8.5867 6.08799 8.83337 6.25281C9.08005 6.41763 9.27227 6.65188 9.3858 6.92596C9.49933 7.20005 9.52907 7.50169 9.47119 7.79266C9.41331 8.08364 9.27045 8.35089 9.06067 8.56067C8.85089 8.77045 8.58364 8.91331 8.29266 8.97119C8.00169 9.02907 7.70005 8.99933 7.42596 8.8858C7.15188 8.77227 6.91763 8.58005 6.75281 8.33337C6.58799 8.0867 6.5 7.79667 6.5 7.5C6.5 7.10218 6.65803 6.72064 6.93933 6.43933C7.22064 6.15803 7.60218 6 8 6Z" fill="#888888"/>
</svg>
