<svg width="16" height="17" viewBox="0 0 16 17" fill="none" xmlns="http://www.w3.org/2000/svg">
<path fill-rule="evenodd" clip-rule="evenodd" d="M5.38209 16.5C2.24946 15.3851 0 12.3253 0 8.72525C0 4.18257 3.58173 0.5 8 0.5C12.4183 0.5 16 4.18257 16 8.72525C16 12.3206 13.7564 15.3772 10.6301 16.4956L10.2798 13.6381C11.8911 12.7863 12.9932 11.0604 12.9932 9.06979C12.9932 6.72163 11.4595 4.74168 9.36567 4.13064V3.90766H10.3245V3.17766L8.08125 1.49801L5.7717 3.17766V3.98482H6.76008V4.09515C4.60098 4.66154 3.00448 6.67402 3.00448 9.06979C3.00448 11.0859 4.13511 12.8306 5.78019 13.6705L5.38209 16.5ZM10.1865 12.8769C11.4516 12.1072 12.2999 10.6903 12.2999 9.06979C12.2999 7.11941 11.0711 5.46386 9.36567 4.87677V6.76247H10.5838L9.57672 7.90203L10.1865 12.8769ZM5.88562 12.9212L6.5918 7.90203L5.52015 6.76247H6.76008V4.83497C4.98848 5.38174 3.69783 7.07094 3.69783 9.06979C3.69783 10.7219 4.57947 12.1624 5.88562 12.9212Z" fill="#888888"/>
</svg>
