<svg width="14" height="13" viewBox="0 0 14 13" fill="none" xmlns="http://www.w3.org/2000/svg">
<path fill-rule="evenodd" clip-rule="evenodd" d="M11.9849 11.5426C11.9664 11.7403 11.8889 11.9281 11.7623 12.0816C11.6358 12.2351 11.466 12.3474 11.2747 12.4038C11.0835 12.4603 10.8797 12.4584 10.6895 12.3985C10.4993 12.3386 10.3315 12.2233 10.2077 12.0675C9.1195 11.2066 7.42235 9.96583 7.42235 9.96583C7.42235 9.96583 6.19427 12.1202 5.97463 12.3409C5.90207 12.4016 5.81761 12.4466 5.72662 12.473C5.63563 12.4993 5.54013 12.5065 5.44619 12.4941C5.35225 12.4816 5.26191 12.4498 5.181 12.4007C5.10009 12.3516 5.03037 12.2862 4.97625 12.2087C4.96505 12.1748 4.95179 12.1415 4.9364 12.1092L5.62522 8.67744L10.5373 3.87265L3.83809 7.67927C3.83809 7.67927 0.813035 6.77855 0.363766 6.60259C0.24787 6.53955 0.152297 6.44511 0.0880913 6.3302C0.023886 6.21529 -0.00623899 6.08462 0.00107471 5.95333C0.00838841 5.82203 0.0528319 5.69548 0.129406 5.58834C0.20598 5.48121 0.311534 5.39788 0.43372 5.34799C1.07268 5.0239 12.3443 0.737053 12.7237 0.626701C13.103 0.516349 14.1014 0.229035 13.9916 1.19635C13.8818 2.16367 12.0947 11.0107 11.9849 11.5426Z" fill="#888888"/>
</svg>
