<svg width="16" height="9" viewBox="0 0 16 9" fill="none" xmlns="http://www.w3.org/2000/svg">
<path fill-rule="evenodd" clip-rule="evenodd" d="M9.45125 0.779503V4.03225C9.44767 4.08596 9.45692 4.1398 9.47823 4.18921C9.49954 4.23862 9.53229 4.28219 9.57376 4.31636C9.61523 4.35054 9.66424 4.37435 9.7167 4.38573C9.76916 4.39711 9.82353 4.39577 9.87537 4.38183C10.1741 4.36186 10.8492 1.58543 11.1489 0.986205C11.3081 0.644817 11.5636 0.357723 11.8837 0.16031C11.9848 0.069078 12.1135 0.0145305 12.2491 0.00548165H15.1147C15.1921 0.0185428 15.2648 0.0511498 15.3261 0.100208C15.3875 0.149265 15.4353 0.213147 15.4651 0.28588C15.495 0.358613 15.506 0.437788 15.4969 0.515929C15.4879 0.59407 15.4591 0.668644 15.4134 0.732567C15.1894 1.23192 13.2677 4.33786 13.1681 4.46369C13.0483 4.62608 12.9675 4.81406 12.9321 5.01297C12.9715 5.24768 13.0797 5.46537 13.2428 5.6382C13.442 5.8649 15.051 7.64157 15.2013 7.79038C15.3429 7.9541 15.4375 8.15327 15.4752 8.36666C15.4393 8.54838 15.3386 8.71078 15.192 8.82346C15.0454 8.93614 14.8629 8.99135 14.6786 8.97884C14.0553 8.97884 12.5219 8.97884 12.3467 8.97884C11.9964 8.8559 11.6742 8.66406 11.3988 8.41457C11.1748 8.21483 10.3443 7.26408 10.2199 7.13924C10.1778 7.08843 10.1239 7.04866 10.063 7.02343C10.0021 6.99819 9.93599 6.98823 9.87039 6.99441C9.72104 6.99441 9.43727 7.00944 9.45021 7.5777C9.48557 7.97238 9.4031 8.36865 9.21326 8.71618C9.11604 8.80968 9.00083 8.8823 8.87464 8.92953C8.74845 8.97675 8.61396 8.99762 8.47944 8.99085C7.46096 9.05277 6.44811 8.79933 5.578 8.2648C4.01078 7.28806 2.22649 4.68041 1.39609 3.01757C0.900758 2.19151 0.594707 1.26538 0.5 0.306117C0.549785 0.130345 0.549737 0.00645694 0.724978 0.00645694C0.90022 0.00645694 3.10372 0.00645694 3.31381 0.00645694C3.45931 0.0791652 3.58071 0.192622 3.66331 0.33306C3.73799 0.432931 4.30748 2.14269 4.48173 2.4433C4.65597 2.74391 5.51524 4.39079 5.98122 4.39079C6.13594 4.36032 6.27239 4.26975 6.3608 4.1388C6.44921 4.00784 6.48241 3.8471 6.45318 3.69168C6.45318 3.2922 6.45318 1.71525 6.45318 1.51451C6.26377 1.07168 5.91659 0.715592 5.47942 0.515807C5.58829 0.370757 5.72716 0.251073 5.88648 0.164882C6.04579 0.0786915 6.22179 0.0280331 6.40243 0.0164537C6.99984 -0.00851389 8.49835 -0.0084661 8.82195 0.0404705C8.99466 0.0742147 9.15089 0.165632 9.26516 0.299839C9.37944 0.434046 9.44504 0.603121 9.45125 0.779503Z" fill="#888888"/>
</svg>
