<svg width="16" height="15" viewBox="0 0 16 15" fill="none" xmlns="http://www.w3.org/2000/svg">
<path fill-rule="evenodd" clip-rule="evenodd" d="M8.00028 15C6.58617 14.9964 5.20226 14.5899 4.01014 13.8278L0.5 15L1.67009 11.4824C0.788563 10.0731 0.399581 8.41014 0.564456 6.75516C0.72933 5.10018 1.43871 3.54706 2.58089 2.34005C3.72307 1.13304 5.23322 0.340632 6.87402 0.0874328C8.51483 -0.165766 10.1932 0.134597 11.645 0.941322C13.0967 1.74805 14.2396 3.01532 14.894 4.54388C15.5483 6.07244 15.6769 7.77558 15.2596 9.38538C14.8423 10.9952 13.9027 12.4203 12.5886 13.4366C11.2745 14.453 9.66044 15.003 8.00028 15ZM9.63035 8.62407C10.1292 8.78574 10.6367 8.91955 11.1504 9.02484C11.2045 9.03281 11.2563 9.0516 11.3029 9.08012C11.3495 9.10864 11.3899 9.14627 11.4217 9.1908C11.4534 9.23532 11.4759 9.28585 11.4877 9.33927C11.4995 9.39269 11.5004 9.44795 11.4904 9.50174V9.79025C11.4954 9.89323 11.4763 9.99597 11.4346 10.0902C11.393 10.1845 11.3298 10.2677 11.2504 10.3333C11.0039 10.5839 10.7121 10.7852 10.3904 10.9264C9.91582 10.9829 9.43467 10.941 8.97701 10.8031C8.51935 10.6652 8.09496 10.4343 7.73025 10.1249C7.26004 9.80886 6.82139 9.44824 6.42027 9.04789C6.02104 8.64397 5.65944 8.20429 5.34015 7.7344C5.03376 7.3688 4.80561 6.94407 4.66971 6.48653C4.53382 6.02899 4.49316 5.5484 4.5502 5.07447C4.69134 4.754 4.89147 4.46303 5.14019 4.21685C5.20356 4.13565 5.28604 4.0715 5.38031 4.03022C5.47459 3.98894 5.57772 3.97181 5.68025 3.98038H5.97018C6.07956 3.96525 6.19055 3.99418 6.27866 4.06086C6.36677 4.12753 6.42479 4.22654 6.44017 4.33609C6.59017 4.9292 6.70021 5.358 6.85022 5.8389C6.91022 6.03927 6.84029 6.08734 6.68029 6.20757C6.58028 6.28471 6.50027 6.34083 6.42027 6.39994C6.37387 6.42017 6.33224 6.44993 6.29807 6.48732C6.2639 6.52472 6.23793 6.56888 6.2219 6.61696C6.20587 6.66505 6.20005 6.71601 6.20493 6.76647C6.20981 6.81693 6.22527 6.86576 6.25022 6.90987C6.50561 7.4023 6.83249 7.85407 7.22023 8.25038C7.61525 8.63957 8.0672 8.96623 8.56036 9.21917C8.60451 9.24374 8.65316 9.2589 8.70344 9.26363C8.75371 9.26835 8.80443 9.26254 8.85237 9.24663C8.9003 9.23071 8.9445 9.20504 8.98201 9.17117C9.01952 9.1373 9.04951 9.09597 9.07027 9.04985C9.13027 8.9687 9.18034 8.89257 9.26034 8.78837C9.27281 8.75236 9.29242 8.71922 9.31796 8.69096C9.3435 8.66271 9.37449 8.63994 9.40903 8.62394C9.44357 8.60795 9.48098 8.59907 9.51902 8.59789C9.55705 8.59672 9.59489 8.60327 9.63035 8.61709V8.62407Z" fill="#888888"/>
</svg>
